PathFileType	4	(X/Y/Z)	C:\Users\Basilio\Documents\Thesis Gigler\squatting_fais\c3dfiles\054\SLS_front_pre5\markers_experimental.trc
DataRate	CameraRate	NumFrames	NumMarkers	Units	OrigDataRate	OrigDataStartFrame	OrigNumFrames
200.000000	200.000000	4	61	mm	200.000000	0	1413
Frame#	Time	FHD			LBHD			RBHD			C7			T10			CLAV			LSHO			LUUPA			LMUPA			LDUPA			LLEP			LMEP			LRAD			LUL			LRFIN			RSHO			RUPA1			RMUPA			RDUPA			RLEP			RMEP			RRAD			RUL			RUFIN			LASI			RASI			USACR			LSACR			RSACR			LTHI1			LTHI2			LTHI3			LTHI4			LLFC			LMFC			LTIB1			LTIB2			LTIB3			LTIB4			LLMAL			LMMAL			LHEE			LMT1			LMT2			LMT5			RTHI			RTHI2			RTHI3			RTHI4			RLFC			RMFC			RTIB1			RTIB2			RTIB3			RTIB4			RLMAL			RMMAL			RHEE			RMT1			RMT2			RMT5			
		X1	Y1	Z1	X2	Y2	Z2	X3	Y3	Z3	X4	Y4	Z4	X5	Y5	Z5	X6	Y6	Z6	X7	Y7	Z7	X8	Y8	Z8	X9	Y9	Z9	X10	Y10	Z10	X11	Y11	Z11	X12	Y12	Z12	X13	Y13	Z13	X14	Y14	Z14	X15	Y15	Z15	X16	Y16	Z16	X17	Y17	Z17	X18	Y18	Z18	X19	Y19	Z19	X20	Y20	Z20	X21	Y21	Z21	X22	Y22	Z22	X23	Y23	Z23	X24	Y24	Z24	X25	Y25	Z25	X26	Y26	Z26	X27	Y27	Z27	X28	Y28	Z28	X29	Y29	Z29	X30	Y30	Z30	X31	Y31	Z31	X32	Y32	Z32	X33	Y33	Z33	X34	Y34	Z34	X35	Y35	Z35	X36	Y36	Z36	X37	Y37	Z37	X38	Y38	Z38	X39	Y39	Z39	X40	Y40	Z40	X41	Y41	Z41	X42	Y42	Z42	X43	Y43	Z43	X44	Y44	Z44	X45	Y45	Z45	X46	Y46	Z46	X47	Y47	Z47	X48	Y48	Z48	X49	Y49	Z49	X50	Y50	Z50	X51	Y51	Z51	X52	Y52	Z52	X53	Y53	Z53	X54	Y54	Z54	X55	Y55	Z55	X56	Y56	Z56	X57	Y57	Z57	X58	Y58	Z58	X59	Y59	Z59	X60	Y60	Z60	X61	Y61	Z61	

1	0	-192.5718383789063	1797.498413085938	-903.5649414062502	-354.1880493164063	1729.108276367188	-960.0061645507815	-358.8547363281251	1726.928833007813	-819.6889648437502	-381.1101074218751	1557.21337890625	-883.0582275390627	-384.2586975097657	1226.031127929688	-889.7462158203127	-233.5559539794922	1509.66259765625	-893.9583740234377	-321.7561645507813	1540.574829101563	-1056.507080078125	-329.6919555664063	1310.387084960938	-1167.63232421875	-281.9727783203126	1298.856079101563	-1160.175048828125	-307.5333557128907	1245.208984375	-1170.568237304688	-283.3725280761719	1198.205932617188	-1169.162353515625	-322.3132629394532	1173.3359375	-1100.476684570313	-147.771469116211	972.4531250000002	-1138.353393554688	-187.1347808837891	950.2073364257815	-1201.890014648438	-102.2984008789063	896.6929321289065	-1163.342163085938	-298.7952880859376	1541.513061523438	-723.9875488281251	-282.7614746093751	1309.664794921875	-611.5661621093751	-239.5688018798829	1293.427124023438	-624.0059204101564	-268.9808349609376	1241.119750976563	-612.0346679687501	-258.3773498535157	1201.856567382813	-617.9154663085939	-296.5776367187501	1184.360961914063	-685.3767700195314	-105.4706115722657	970.1458129882815	-661.0958862304689	-158.7558288574219	958.0914306640627	-603.6094970703126	-63.42035293579103	905.794616699219	-634.1552124023439	-188.3496246337891	1065.356567382813	-1018.384826660156	-183.8886871337891	1067.037109375	-762.8601684570314	-376.4231872558594	1141.8017578125	-889.7612915039065	-382.1613464355469	1109.965698242188	-917.5274658203127	-379.8691101074219	1108.452514648438	-861.540954589844	-295.8323669433594	831.0745849609377	-1105.586669921875	-270.9247741699219	749.2155761718751	-1105.182373046875	-223.8864440917969	748.5824584960939	-1098.97021484375	-304.2314758300782	699.0401611328126	-1090.411010742188	-318.8345336914063	543.9160156250001	-1074.411743164063	-284.7372436523438	529.3562622070314	-940.2833251953127	-272.8003540039063	381.0213623046876	-1038.299438476563	-324.4425659179688	338.4638061523438	-1098.394409179688	-284.6960144042969	335.1760253906251	-1073.880126953125	-285.8946838378907	254.7664642333985	-1046.71533203125	-338.9788818359376	117.8656539916992	-1092.556762695313	-307.9468078613282	133.5554504394532	-1001.890747070313	-408.9075012207032	106.2347488403321	-1036.632568359375	-198.0525512695313	57.27393341064455	-1017.186401367188	-189.7935333251953	55.51158523559572	-1066.57177734375	-242.7955627441407	41.51620483398438	-1117.778198242188	-299.4698181152344	764.9604492187501	-689.8699340820314	-270.2132263183594	705.4981689453126	-691.6895751953126	-237.1293945312501	702.4321289062501	-696.0541992187501	-308.4454345703126	633.2092895507814	-709.1022949218751	-332.4675292968751	541.9112548828126	-713.6605834960939	-279.1976928710938	535.9862670898439	-843.2822265625002	-282.0605468750001	432.3098754882814	-716.9659423828126	-355.4118957519532	363.3290100097657	-681.8991088867189	-309.8953247070313	354.1518859863282	-689.5498657226564	-296.1135559082032	302.4043884277344	-711.4685668945314	-357.5062561035157	129.6929321289063	-685.9986572265626	-316.2658691406251	138.3163299560547	-771.490417480469	-418.4418945312501	106.2122802734375	-745.0592041015626	-200.6327514648438	53.9988250732422	-748.1314697265626	-200.6281280517579	54.74890136718751	-699.7711181640626	-252.5623779296876	43.3092155456543	-653.4373168945314	
2	0.005	-192.3729248046876	1797.483154296875	-903.527038574219	-354.0982971191407	1729.116455078125	-959.968933105469	-358.8598937988282	1726.9130859375	-819.6401367187502	-381.0110473632813	1557.216674804688	-883.0179443359377	-384.3075256347657	1226.041625976563	-889.6804809570315	-233.5199127197266	1509.624389648438	-893.9180297851565	-321.6825256347657	1540.609252929688	-1056.446899414063	-329.7983703613282	1310.43994140625	-1167.575927734375	-282.0744018554688	1298.887084960938	-1160.151245117188	-306.8809814453126	1245.053466796875	-1170.519287109375	-283.5203247070313	1198.244873046875	-1169.142333984375	-322.4778442382813	1173.359619140625	-1100.436645507813	-148.0715026855469	972.2774047851565	-1138.619873046875	-187.5628662109375	950.1445312500002	-1202.135375976563	-102.6757431030274	896.6587524414065	-1163.549072265625	-298.7364807128907	1541.52685546875	-723.9320678710939	-282.7680053710938	1309.671997070313	-611.4645996093751	-239.5919952392579	1293.433837890625	-623.9432983398439	-269.1570434570313	1241.132202148438	-611.9160766601564	-258.4851074218751	1201.826293945313	-617.8096923828126	-296.6972961425782	1184.36279296875	-685.2751464843751	-105.8942489624024	970.1071777343752	-660.9444580078126	-159.0146026611328	958.031188964844	-603.4655151367189	-63.62482070922853	905.6978759765627	-634.0625610351564	-188.44287109375	1065.360595703125	-1018.389709472656	-183.9060211181641	1067.009643554688	-762.8794555664064	-376.5057678222657	1141.8125	-889.7205810546877	-382.2112731933594	1109.969604492188	-917.5111083984377	-379.9239196777344	1108.46728515625	-861.440612792969	-295.9036560058594	831.0764160156252	-1105.586059570313	-270.9951171875001	749.1977539062501	-1105.139404296875	-223.9039764404297	748.6072998046876	-1098.934448242188	-304.2314453125001	699.0401611328126	-1090.411010742188	-318.3823242187501	544.0031738281251	-1074.621337890625	-284.6627807617188	529.3477172851564	-940.335388183594	-272.7635803222657	381.0153808593751	-1038.30078125	-325.3159484863282	338.5065612792969	-1098.628173828125	-284.7086791992188	335.2017822265626	-1073.879028320313	-285.9419250488282	254.7951049804688	-1046.715087890625	-339.5012207031251	117.9155807495117	-1092.440063476563	-307.9494628906251	133.5905303955078	-1001.89453125	-408.9075012207032	106.2347488403321	-1036.632568359375	-198.0712585449219	57.23279190063478	-1017.211364746094	-189.8049011230469	55.52902603149415	-1066.543334960938	-242.7699432373047	41.53899765014649	-1117.724853515625	-299.4875488281251	764.9505615234376	-689.8130493164064	-270.2129516601563	705.4758300781251	-691.6801147460939	-237.1290893554688	702.4290771484376	-696.0605468750001	-308.4472351074219	633.1890869140626	-709.1004028320314	-332.4683532714844	541.9247436523439	-713.6405639648439	-279.0777893066407	536.0713500976564	-843.3040161132815	-282.0771179199219	432.2744140625001	-716.9830322265626	-355.3632812500001	363.3348693847657	-681.8636474609376	-309.9257202148438	354.1509094238282	-689.5471801757814	-296.1485290527344	302.3843383789063	-711.4611206054689	-357.4968566894532	129.69873046875	-685.9841308593751	-316.3015441894532	138.3057403564453	-771.484558105469	-418.4184875488282	106.1498031616211	-745.0908813476564	-200.5994873046876	54.07518005371095	-748.1533203125001	-200.6007995605469	54.79052352905275	-699.8245849609376	-252.5609283447266	43.30354309082032	-653.4603271484376	
3	0.01	-192.426742553711	1797.438232421875	-903.695251464844	-354.0372314453126	1729.149291992188	-959.9028320312502	-358.8017272949219	1726.930297851563	-819.6187744140627	-380.9964599609376	1557.236694335938	-882.9429321289065	-383.6379394531251	1225.590209960938	-889.7232666015627	-233.4768676757813	1509.616333007813	-893.845642089844	-321.6443481445313	1540.63525390625	-1056.380493164063	-329.7830200195313	1310.455688476563	-1167.585693359375	-282.0938720703126	1298.933837890625	-1160.13818359375	-307.0125122070313	1245.04638671875	-1170.529907226563	-283.6144714355469	1198.250732421875	-1169.155395507813	-322.5672607421876	1173.36767578125	-1100.441650390625	-148.5757293701172	972.1912231445315	-1138.834838867188	-188.0278625488282	950.1250610351565	-1202.333129882813	-103.4019317626953	896.5136718750002	-1164.000854492188	-298.6821289062501	1541.540893554688	-723.8981323242189	-282.8436889648438	1309.695434570313	-611.3461303710939	-239.6397857666016	1293.432495117188	-623.8647460937501	-269.1964416503907	1241.132934570313	-611.7888183593751	-258.5493469238282	1201.831787109375	-617.7661743164064	-296.8075561523438	1184.37939453125	-685.1764526367189	-105.9260940551758	970.090270996094	-660.8341674804689	-159.246810913086	958.0555419921877	-603.2767944335939	-63.96971893310548	905.6092529296877	-633.7796630859376	-188.4800872802735	1065.414306640625	-1018.361938476563	-183.892822265625	1067.060913085938	-762.8866577148439	-376.5330200195313	1141.819702148438	-889.6570434570315	-382.2536926269532	1109.988037109375	-917.4248046875002	-379.9406738281251	1108.473266601563	-861.440612792969	-295.9143371582032	831.0570068359377	-1105.547973632813	-271.0360717773438	749.2202148437501	-1105.150634765625	-223.9883270263672	748.6186523437501	-1098.987670898438	-304.2658996582032	699.0765991210939	-1090.394775390625	-318.3547668457032	544.0043945312501	-1074.61279296875	-284.6569213867188	529.3284301757814	-940.3646240234377	-272.7167358398438	380.9583740234376	-1038.31298828125	-325.3150024414063	338.4430236816407	-1098.602294921875	-284.6635742187501	335.1481018066407	-1073.814086914063	-285.9343261718751	254.8041992187501	-1046.68212890625	-338.9763793945313	117.8736267089844	-1092.575927734375	-307.9343566894532	133.5945129394532	-1001.903259277344	-408.9408569335939	106.2398834228516	-1036.598266601563	-198.0700378417969	57.26857376098634	-1017.192626953125	-189.8018035888672	55.51576614379884	-1066.5546875	-242.7690887451172	41.50782012939454	-1117.713134765625	-299.4796447753907	764.9478759765626	-689.8098754882814	-270.2471313476563	705.4711914062501	-691.6871337890626	-237.1806335449219	702.4282226562501	-696.0493164062501	-308.4534912109376	633.1783447265626	-709.0809326171876	-332.4811096191407	541.8994750976564	-713.5983886718751	-279.2725830078126	535.9745483398439	-843.2071533203127	-282.0663757324219	432.2913208007814	-716.9541015625001	-355.4374084472657	363.3378906250001	-681.8670043945314	-309.9323120117188	354.1740417480469	-689.5438232421876	-296.1787414550782	302.3671875000001	-711.4382934570314	-357.4810180664063	129.6815032958985	-685.9655151367189	-316.2691650390626	138.2882537841797	-771.4727172851565	-418.4217224121095	106.1365203857422	-745.0429077148439	-200.6397705078126	54.04513168334962	-748.1077270507814	-200.6942443847657	54.75677871704103	-699.7663574218751	-252.5666046142579	43.32032012939454	-653.4412841796876	
4	0.015	-192.1915893554688	1797.417602539063	-903.4006347656252	-353.9648132324219	1729.124389648438	-959.8748168945315	-358.7460632324219	1726.947631835938	-819.5466308593752	-380.9089050292969	1557.260986328125	-882.8735351562502	-384.3403625488282	1226.08642578125	-889.5377197265627	-233.5074920654297	1509.555053710938	-893.8106689453127	-321.5833435058594	1540.621704101563	-1056.369995117188	-329.9293212890626	1310.501098632813	-1167.5625	-282.2198181152344	1298.892822265625	-1160.130004882813	-307.8114624023438	1245.260620117188	-1170.5419921875	-283.6508789062501	1198.277465820313	-1169.16357421875	-322.5474243164063	1173.377563476563	-1100.488525390625	-148.7342376708985	972.164001464844	-1139.105346679688	-188.4406127929688	950.1059570312502	-1202.524780273438	-103.5426788330078	896.468200683594	-1164.069091796875	-298.6283264160157	1541.537109375	-723.8291625976564	-282.8938903808594	1309.702392578125	-611.2689208984376	-239.6899871826172	1293.4794921875	-623.7873535156251	-269.3116149902344	1241.140502929688	-611.6922607421876	-258.5973205566407	1201.830932617188	-617.6532592773439	-296.9317626953126	1184.357788085938	-685.0664062500001	-106.0281448364258	970.012390136719	-660.7182617187501	-159.4624786376953	958.010437011719	-603.1386718750001	-64.15840148925783	905.4707031250002	-633.6837158203126	-188.544662475586	1065.411865234375	-1018.3408203125	-183.9949798583985	1067.030395507813	-762.8074340820314	-376.6528320312501	1141.822631835938	-889.5500488281252	-382.2999572753907	1110.011962890625	-917.3601684570315	-379.9925537109376	1108.488159179688	-861.3679199218752	-295.5601196289063	831.0975341796877	-1105.687255859375	-271.0397033691407	749.2073974609376	-1105.141967773438	-224.0185089111329	748.6172485351564	-1098.971557617188	-304.2469177246094	699.0569458007814	-1090.407348632813	-318.8397521972657	543.9168701171876	-1074.397583007813	-284.6744384765626	529.3414916992189	-940.3646240234377	-272.6867980957032	380.9691467285157	-1038.285766601563	-325.2962036132813	338.4947204589844	-1098.579833984375	-284.7043457031251	335.0538024902344	-1073.929077148438	-285.9365539550782	254.7328491210938	-1046.67724609375	-339.5336914062501	117.940544128418	-1092.414306640625	-307.9291687011719	133.5610046386719	-1001.896118164063	-408.8987731933595	106.2328109741211	-1036.608032226563	-198.0694732666016	57.27297592163087	-1017.247192382813	-189.7846221923828	55.50709152221681	-1066.550659179688	-242.8018035888672	41.50339126586915	-1117.73974609375	-299.4828796386719	764.9336547851564	-689.7998657226564	-270.1890258789063	705.3652954101564	-691.8731689453126	-237.2831573486329	702.7046508789064	-695.9601440429689	-308.4562072753907	633.1629638671876	-709.0807495117189	-332.4811096191407	541.8994750976564	-713.5983886718751	-279.2828674316407	536.0036621093751	-843.205749511719	-282.1117248535157	432.2899475097657	-716.9382934570314	-355.4615783691407	363.3013305664063	-681.8541259765626	-309.9361877441407	354.1441650390626	-689.5557861328126	-296.2416076660157	302.3460693359376	-711.4148559570314	-357.4829711914063	129.6722717285157	-685.9799194335939	-316.3015441894532	138.3057403564453	-771.484558105469	-418.4271850585939	106.1353454589844	-745.0537719726564	-200.6413269042969	54.0150833129883	-748.1020507812501	-200.6760559082032	54.75288009643556	-699.7517700195314	-252.5670166015626	43.29374313354493	-653.4607543945314	
